<svg xmlns="http://www.w3.org/2000/svg" viewBox="0 0 85 85"><defs><style>.a57137e2-c7de-4394-a649-261201d047b8{fill:none;}.f0070131-e103-4c09-8188-80698714c8f3{fill-rule:evenodd;}</style></defs><g id="e1da3c08-c39c-47fa-9a72-e2ddb1698380" data-name="Layer 2"><g id="f302fc23-a056-4a32-9104-2a294a424fe2" data-name="Layer 1"><circle class="a57137e2-c7de-4394-a649-261201d047b8" cx="42.5" cy="42.5" r="42.5"/><path class="f0070131-e103-4c09-8188-80698714c8f3" d="M16,59.63V46.33H26.42V38.77h5.66v7.56H42V52H35.32V62.85H42V69H25.31A9.35,9.35,0,0,1,16,59.63ZM52.92,47.74V42.1H46.24V35.45h6.68V21.24H46.24V16.1H59.59A9.44,9.44,0,0,1,69,25.47V42.1H61.92v5.64ZM16,42.1V25.37A9.44,9.44,0,0,1,25.41,16H42.1v9.47h6.67v5.64H42.1V42H36.43V34.44H22.17V42H16Z"/></g></g></svg>