<svg xmlns="http://www.w3.org/2000/svg" viewBox="0 0 85 85"><defs><style>.bb6b5fa5-aca3-489e-a63c-230749d7c76b{fill:none;}.bbf18eb5-d608-451e-a91e-36891d1e6588{fill-rule:evenodd;}</style></defs><g id="b2b4b893-6511-4285-bfe9-f79759288738" data-name="Layer 2"><g id="bb5d5450-eacc-48bc-9707-ce6cab25c80b" data-name="Layer 1"><circle class="bb6b5fa5-aca3-489e-a63c-230749d7c76b" cx="42.5" cy="42.5" r="42.5"/><path class="bbf18eb5-d608-451e-a91e-36891d1e6588" d="M19.74,65.46l-.2-.2a15.72,15.72,0,0,1,0-22.1L43.16,19.54a15.72,15.72,0,0,1,22.1,0l.2.2a15.72,15.72,0,0,1,0,22.1L41.84,65.46A15.72,15.72,0,0,1,19.74,65.46ZM37.2,60.72,48.91,49,36,36.09,24.28,47.8a9,9,0,0,0,0,12.71l.21.21A9,9,0,0,0,37.2,60.72Z"/></g></g></svg>