<svg xmlns="http://www.w3.org/2000/svg" viewBox="0 0 85 85"><defs><style>.fe015bd7-f549-4da2-86e2-bf23c94e704f{fill:none;}</style></defs><g id="be80b41c-13b3-413c-a134-f62e4f13fc4d" data-name="Layer 2"><g id="ba492dbe-07bc-40fd-a544-88f3da0a2465" data-name="Layer 1"><circle class="fe015bd7-f549-4da2-86e2-bf23c94e704f" cx="42.5" cy="42.5" r="42.5"/><path d="M16,34.7V25.3A9.35,9.35,0,0,1,25.3,16h9.4v6.8h-10a1.9,1.9,0,0,0-1.9,1.9v10Zm46.2,0v-10a1.9,1.9,0,0,0-1.9-1.9h-10V16h9.4A9.35,9.35,0,0,1,69,25.3v9.4ZM27.85,38.15a10.2,10.2,0,0,1,20.4,0h-6.8a3.35,3.35,0,0,0-3.3,3.4v6.8A10.33,10.33,0,0,1,27.85,38.15ZM40.26,57.06a2,2,0,0,1-2-2v-6.6a10.24,10.24,0,0,0,10.2-10.2h6.6a2,2,0,0,1,2,2v14.8a2,2,0,0,1-2.1,2ZM25.3,69A9.35,9.35,0,0,1,16,59.7V50.3h6.8v10a2,2,0,0,0,1.9,1.9h10V69Zm25,0V62.2h10a1.9,1.9,0,0,0,1.9-1.9v-10H69v9.4A9.35,9.35,0,0,1,59.7,69Z"/></g></g></svg>