<svg xmlns="http://www.w3.org/2000/svg" viewBox="0 0 85 85"><defs><style>.a2eb5cb4-5305-4b3d-b06c-1de6db3fa336{fill:none;}.f5d2fa6a-ee7a-41e5-af77-92b65c1b7ec4{fill-rule:evenodd;}</style></defs><g id="bd4923ea-c26a-4bbf-bfcc-0b1b71d6c667" data-name="Layer 2"><g id="bf98b5fa-757b-4aa0-a9c8-ccb5e21cf97e" data-name="Layer 1"><circle class="a2eb5cb4-5305-4b3d-b06c-1de6db3fa336" cx="42.5" cy="42.5" r="42.5"/><path class="f5d2fa6a-ee7a-41e5-af77-92b65c1b7ec4" d="M65.8,56.54a26.7,26.7,0,0,0,1.12-24.78l4.08-13L60.6,21.05l-1.84.41A21.26,21.26,0,0,0,56,19.62a27,27,0,0,0-29.77,1.84l-1.84-.41L14,18.71l4.08,13.05A26.92,26.92,0,0,0,65.8,56.54Zm-19.88.91H39a2.45,2.45,0,1,1,0-4.89h6.94a2.45,2.45,0,0,1,0,4.89Zm.91-13.35a3.35,3.35,0,0,1,1.23-4.59l6-3.47a3.36,3.36,0,1,1,3.37,5.81l-6,3.47A3.34,3.34,0,0,1,46.83,44.1ZM33.48,45.32l-6-3.47A3.36,3.36,0,0,1,30.82,36l6,3.47a3.36,3.36,0,0,1-3.36,5.81Z"/></g></g></svg>