<svg xmlns="http://www.w3.org/2000/svg" viewBox="0 0 85 85"><g id="f354bb12-ff5f-4e90-8d7c-4e527a28ad48" data-name="Layer 2"><g id="ba1f0674-404e-4eea-a764-a45b2998d8d4" data-name="Layer 1"><path d="M24.28,47.8a9,9,0,0,0,0,12.71l.21.21a9,9,0,0,0,12.71,0L48.91,49,36,36.09Z"/><path d="M42.5,0A42.5,42.5,0,1,0,85,42.5,42.5,42.5,0,0,0,42.5,0Zm23,41.84L41.84,65.46a15.72,15.72,0,0,1-22.1,0l-.2-.2a15.72,15.72,0,0,1,0-22.1L43.16,19.54a15.72,15.72,0,0,1,22.1,0l.2.2A15.72,15.72,0,0,1,65.46,41.84Z"/></g></g></svg>