<svg xmlns="http://www.w3.org/2000/svg" viewBox="0 0 85 85"><g id="a1ba5a78-22cb-4b23-aaec-f82cb3f3117c" data-name="Layer 2"><g id="abebdf52-861a-4937-8aef-9b15c3cb3a42" data-name="Layer 1"><path d="M42.5,0A42.5,42.5,0,1,0,85,42.5,42.5,42.5,0,0,0,42.5,0ZM16,25.3A9.35,9.35,0,0,1,25.3,16h9.4v6.8h-10a1.9,1.9,0,0,0-1.9,1.9v10H16ZM34.7,69H25.3A9.35,9.35,0,0,1,16,59.7V50.3h6.8v10a2,2,0,0,0,1.9,1.9h10Zm3.45-20.65a10.2,10.2,0,1,1,10.1-10.2h-6.8a3.35,3.35,0,0,0-3.3,3.4Zm2.11,8.71a2,2,0,0,1-2-2v-6.6a10.24,10.24,0,0,0,10.2-10.2h6.6a2,2,0,0,1,2,2v14.8a2,2,0,0,1-2.1,2ZM69,59.7A9.35,9.35,0,0,1,59.7,69H50.3V62.2h10a1.9,1.9,0,0,0,1.9-1.9v-10H69Zm0-25H62.2v-10a1.9,1.9,0,0,0-1.9-1.9h-10V16h9.4A9.35,9.35,0,0,1,69,25.3Z"/></g></g></svg>