<?xml version="1.0" encoding="UTF-8"?>
<svg id="Layer_2" data-name="Layer 2" xmlns="http://www.w3.org/2000/svg" viewBox="0 0 85 85">
  <g id="Layer_1-2" data-name="Layer 1">
    <g>
      <path d="m29.16,62.21c3.54,0,6.41-2.87,6.41-6.41s-2.87-6.41-6.41-6.41-6.41,2.87-6.41,6.41,2.87,6.41,6.41,6.41Z"/>
      <path d="m55.73,62.21c3.54,0,6.41-2.87,6.41-6.41s-2.87-6.41-6.41-6.41-6.41,2.87-6.41,6.41,2.87,6.41,6.41,6.41Z"/>
      <path d="m22.75,29.23c0,3.54,2.87,6.41,6.41,6.41s6.41-2.87,6.41-6.41-2.87-6.41-6.41-6.41-6.41,2.87-6.41,6.41Z"/>
      <path d="m42.5,0C19.03,0,0,19.03,0,42.5s19.03,42.5,42.5,42.5,42.5-19.03,42.5-42.5S65.97,0,42.5,0Zm-2.13,69.01h-15.05c-5.14,0-9.38-4.23-9.38-9.37v-15.06h24.43v24.43Zm0-28.57H15.94v-15.06c0-5.14,4.24-9.37,9.38-9.37h15.05v24.43Zm28.57,19.2c0,5.14-4.23,9.37-9.37,9.37h-15.05v-24.43h24.42v15.06Zm0-19.2h-24.42v-24.43h15.05c5.14,0,9.37,4.23,9.37,9.37v15.06Z"/>
      <path d="m55.73,22.82c-3.54,0-6.41,2.87-6.41,6.41s2.87,6.41,6.41,6.41,6.41-2.87,6.41-6.41-2.87-6.41-6.41-6.41Z"/>
    </g>
  </g>
</svg>