<?xml version="1.0" encoding="UTF-8"?>
<svg id="Layer_2" data-name="Layer 2" xmlns="http://www.w3.org/2000/svg" viewBox="0 0 85 85">
  <g id="Layer_1-2" data-name="Layer 1">
    <g>
      <path d="m33.41,55.45h-3.54c-3.39,0-6.13,2.74-6.13,6.13v.18h15.8v-.18c0-3.39-2.74-6.13-6.13-6.13Z"/>
      <path d="m36.35,49.03c0-2.62-2.09-4.71-4.71-4.71s-4.71,2.09-4.71,4.71,2.09,4.71,4.71,4.71,4.71-2.16,4.71-4.71Z"/>
      <path d="m33.41,34.37h-3.54c-3.39,0-6.13,2.74-6.13,6.13v.18h15.8v-.18c0-3.39-2.74-6.13-6.13-6.13Z"/>
      <path d="m53.36,32.66c2.62,0,4.71-2.16,4.71-4.71s-2.09-4.71-4.71-4.71-4.71,2.09-4.71,4.71,2.09,4.71,4.71,4.71Z"/>
      <path d="m31.64,32.66c2.62,0,4.71-2.16,4.71-4.71s-2.09-4.71-4.71-4.71-4.71,2.09-4.71,4.71,2.09,4.71,4.71,4.71Z"/>
      <path d="m55.13,34.37h-3.54c-3.39,0-6.13,2.74-6.13,6.13v.18h15.8v-.18c0-3.39-2.74-6.13-6.13-6.13Z"/>
      <path d="m42.5,0C19.03,0,0,19.03,0,42.5s19.03,42.5,42.5,42.5,42.5-19.03,42.5-42.5S65.97,0,42.5,0Zm26.5,59.63c0,5.14-4.23,9.37-9.37,9.37H25.37c-5.14,0-9.37-4.23-9.37-9.37V25.37c0-5.14,4.23-9.37,9.37-9.37h34.26c5.14,0,9.37,4.23,9.37,9.37v34.26Z"/>
      <path d="m58.07,49.03c0-2.62-2.09-4.71-4.71-4.71s-4.71,2.09-4.71,4.71,2.09,4.71,4.71,4.71,4.71-2.16,4.71-4.71Z"/>
      <path d="m55.13,55.45h-3.54c-3.39,0-6.13,2.74-6.13,6.13v.18h15.8v-.18c0-3.39-2.74-6.13-6.13-6.13Z"/>
    </g>
  </g>
</svg>