<?xml version="1.0" encoding="UTF-8"?>
<svg id="Layer_2" data-name="Layer 2" xmlns="http://www.w3.org/2000/svg" viewBox="0 0 85 85">
  <g id="Layer_5" data-name="Layer 5">
    <g>
      <rect x="49.74" y="41.11" width="7.05" height="14.12"/>
      <rect x="38.97" y="41.11" width="7.05" height="14.12"/>
      <path d="m26.39,38.6h32.22c1.04,0,1.88-.84,1.88-1.88s-.84-1.88-1.88-1.88H26.39c-1.04,0-1.88.84-1.88,1.88s.84,1.88,1.88,1.88Z"/>
      <path d="m59.16,30.28l-15.68-6.79c-.61-.3-1.34-.3-1.95,0l-15.69,6.79v2.07h33.32v-2.07Z"/>
      <path d="m42.5,0C19.03,0,0,19.03,0,42.5s19.03,42.5,42.5,42.5,42.5-19.03,42.5-42.5S65.97,0,42.5,0Zm26.5,59.63c0,5.14-4.23,9.37-9.37,9.37H25.37c-5.14,0-9.37-4.23-9.37-9.37V25.37c0-5.14,4.23-9.37,9.37-9.37h34.26c5.14,0,9.37,4.23,9.37,9.37v34.26Z"/>
      <path d="m59.37,57.73H25.63c-1.24,0-2.25,1.01-2.25,2.25v1.75h38.23v-1.75c0-1.24-1.01-2.25-2.25-2.25Z"/>
      <rect x="28.2" y="41.11" width="7.05" height="14.12"/>
    </g>
  </g>
</svg>