<?xml version="1.0" encoding="UTF-8"?>
<svg id="Layer_2" data-name="Layer 2" xmlns="http://www.w3.org/2000/svg" viewBox="0 0 85 85">
  <g id="Layer_1-2" data-name="Layer 1">
    <g>
      <path d="m42.89,26.96c-3.13,0-5.78.87-7.36,1.8l1.49,4.81c1.15-.79,2.91-1.32,4.37-1.32,2.2.09,3.22,1.11,3.21,2.65,0,1.5-1.15,2.91-2.56,4.58-1.99,2.38-2.74,4.67-2.61,6.92l.04,1.15h5.86s0-.79,0-.79c-.04-1.98.62-3.7,2.25-5.51,1.68-1.85,3.75-4.05,3.76-7.4,0-3.66-2.63-6.88-8.45-6.89Z"/>
      <path d="m42.56,0C19.09-.03.03,18.97,0,42.44c-.03,23.47,18.97,42.53,42.44,42.56,23.47.03,42.53-18.97,42.56-42.44C85.03,19.09,66.03.03,42.56,0Zm26.36,59.65c0,5.13-4.24,9.36-9.38,9.35l-34.23-.05c-5.13,0-9.36-4.24-9.35-9.38l.05-34.23c0-5.13,4.24-9.36,9.38-9.35l34.23.05c5.13,0,9.36,4.24,9.35,9.38l-.05,34.23Z"/>
      <path d="m42.44,50.44c-2.29,0-3.93,1.67-3.93,4,0,2.29,1.58,4.01,3.92,4.02,2.38,0,3.97-1.71,3.97-4.01-.04-2.34-1.58-4.01-3.96-4.02Z"/>
    </g>
  </g>
</svg>