<svg xmlns="http://www.w3.org/2000/svg" viewBox="0 0 85 85"><g id="aaf5f6f2-59ca-43ac-8bfe-121f44c31a25" data-name="Layer 2"><g id="e0887ebd-4aaa-4c2f-b60b-519622eb8276" data-name="Layer 1"><path d="M40.94,30.62A12,12,0,1,0,54.38,44.06,12,12,0,0,0,40.94,30.62ZM42.5,48.1a5.6,5.6,0,1,1,5.6-5.6A5.6,5.6,0,0,1,42.5,48.1Z"/><path d="M42.5,0A42.5,42.5,0,1,0,85,42.5,42.5,42.5,0,0,0,42.5,0ZM72.39,55.78H59.13a3.36,3.36,0,0,0-3.36,3.35V72.42a.87.87,0,0,1-1.48.61l-9.42-9.41a3.35,3.35,0,0,0-4.74,0L30.71,73a.87.87,0,0,1-1.48-.61V59.13a3.36,3.36,0,0,0-3.36-3.35H12.61A.87.87,0,0,1,12,54.29l9.42-9.41a3.36,3.36,0,0,0,0-4.75L12,30.72a.87.87,0,0,1,.62-1.49H25.87a3.36,3.36,0,0,0,3.36-3.35V12.58A.87.87,0,0,1,30.71,12l9.42,9.41a3.35,3.35,0,0,0,4.74,0L54.29,12a.87.87,0,0,1,1.48.61v13.3a3.36,3.36,0,0,0,3.36,3.35H72.39A.87.87,0,0,1,73,30.72l-9.42,9.41a3.36,3.36,0,0,0,0,4.75L73,54.29A.87.87,0,0,1,72.39,55.78Z"/></g></g></svg>