<svg xmlns="http://www.w3.org/2000/svg" viewBox="0 0 85 85"><g id="b6e21893-c4bb-4c3c-8161-e99d97d8971f" data-name="Layer 2"><g id="bb0c2084-2503-4907-8154-9609ee98ecd4" data-name="Layer 1"><path d="M42.5,19.92A22.58,22.58,0,1,0,65.08,42.5,22.62,22.62,0,0,0,42.5,19.92Zm0,37.73A15.2,15.2,0,0,1,27.35,42.5a13.6,13.6,0,0,1,.1-2H42V27.35h.5a15.15,15.15,0,0,1,0,30.3Z"/><path d="M42.5,0A42.5,42.5,0,1,0,85,42.5,42.5,42.5,0,0,0,42.5,0Zm0,71A28.5,28.5,0,1,1,71,42.5,28.47,28.47,0,0,1,42.5,71Z"/></g></g></svg>