<svg xmlns="http://www.w3.org/2000/svg" viewBox="0 0 85 85"><defs><style>.ae824336-1df5-42e1-a5f7-b8e46d5a3ea4{fill:none;}.a6d24f43-5013-470e-997f-55b22da43d75{fill:#a1c628;fill-rule:evenodd;}</style></defs><g id="baf07581-2289-429b-b3d4-654aa4ef414d" data-name="Layer 2"><g id="acf24184-1f11-4e44-a22b-856500dcd0a4" data-name="Layer 1"><circle class="ae824336-1df5-42e1-a5f7-b8e46d5a3ea4" cx="42.5" cy="42.5" r="42.5"/><path class="a6d24f43-5013-470e-997f-55b22da43d75" d="M19.74,65.46l-.2-.2a15.72,15.72,0,0,1,0-22.1L43.16,19.54a15.72,15.72,0,0,1,22.1,0l.2.2a15.72,15.72,0,0,1,0,22.1L41.84,65.46A15.72,15.72,0,0,1,19.74,65.46ZM37.2,60.72,48.91,49,36,36.09,24.28,47.8a9,9,0,0,0,0,12.71l.21.21A9,9,0,0,0,37.2,60.72Z"/></g></g></svg>