<svg xmlns="http://www.w3.org/2000/svg" viewBox="0 0 85 85"><defs><style>.b291158d-cf6c-42e3-aa39-06e34988a3cd{fill:none;}.a247f330-8ff2-4fb2-a9db-7eacf906a059{fill:#505657;fill-rule:evenodd;}</style></defs><g id="e60553dd-aca4-4438-94e2-75060d313ccb" data-name="Layer 2"><g id="ada478d8-a5b2-4817-9f49-8cff225c3904" data-name="Layer 1"><circle class="b291158d-cf6c-42e3-aa39-06e34988a3cd" cx="42.5" cy="42.5" r="42.5"/><path class="a247f330-8ff2-4fb2-a9db-7eacf906a059" d="M60.54,39.9a5,5,0,1,0-5,5A5,5,0,0,0,60.54,39.9Zm-13.07,0a5,5,0,1,0-5,5A5,5,0,0,0,47.47,39.9Zm-13.08,0a5,5,0,1,0-5,5A5,5,0,0,0,34.39,39.9Zm-11,32.73V57.53C16.46,53.38,12,47,12,39.8,12,27.23,25.68,17,42.5,17S73,27.23,73,39.8,59.32,62.6,42.5,62.6a35.65,35.65,0,0,1-8.82-1Z"/></g></g></svg>