<svg xmlns="http://www.w3.org/2000/svg" viewBox="0 0 85 85"><defs><style>.b3cceb7f-19dc-4ccc-8d41-144a011453ea{fill:none;}.a250fb16-e46f-4533-aa3c-9c79136474dc{fill:#eb5e2a;}</style></defs><g id="b91597f7-770c-4301-8455-1a44592440f6" data-name="Layer 2"><g id="a40eaa26-0ac8-4c2c-86fa-c72456fc5788" data-name="Layer 1"><circle class="b3cceb7f-19dc-4ccc-8d41-144a011453ea" cx="42.5" cy="42.5" r="42.5"/><path class="a250fb16-e46f-4533-aa3c-9c79136474dc" d="M31.52,65.92l-12.4-45.8a3.26,3.26,0,1,1,6.3-1.7l.3,1.3c7.4-4,11.8-2.1,16,.4s7.9,5.3,14.3,3.4l1.6-.5a2.54,2.54,0,0,1,3.3,1.7l5.9,21.9a2.53,2.53,0,0,1-1.7,3.1l-1.6.5h-.2c-1.1.2-2.1.4-3.2.5-7,.5-11.8-2.8-16.1-4.6-3.3-1.4-6.5-2-10.5.1l-.6.3,4.8,17.7a3.26,3.26,0,0,1-2.3,4A3.16,3.16,0,0,1,31.52,65.92Z"/></g></g></svg>