<svg xmlns="http://www.w3.org/2000/svg" viewBox="0 0 85 85"><defs><style>.a9b9f563-861e-4ae9-b7e3-483982b2fd26{fill:#fff;}</style></defs><g id="b5061bce-c61c-49e9-aa1b-eb0acc38d9e1" data-name="Layer 2"><g id="bc5ea3c8-8910-495f-8c07-81016793af87" data-name="Layer 1"><path class="a9b9f563-861e-4ae9-b7e3-483982b2fd26" d="M42.5,0A42.5,42.5,0,1,0,85,42.5,42.5,42.5,0,0,0,42.5,0Zm27,48.42L48.37,69.54a8.34,8.34,0,0,1-11.83,0L15.46,48.42a8.35,8.35,0,0,1,0-11.84L36.54,15.46a8.34,8.34,0,0,1,11.83,0L69.54,36.58A8.35,8.35,0,0,1,69.54,48.42Z"/><path class="a9b9f563-861e-4ae9-b7e3-483982b2fd26" d="M59.3,38a4.77,4.77,0,0,0-4.37,5.08.9.9,0,0,0,.1.5L44.89,53.6V30.4a4.66,4.66,0,0,0,2.28-4.48,4.76,4.76,0,0,0-5.07-4.38,5,5,0,0,0-4.37,5.28l-10.94,11a5.57,5.57,0,0,0-1.29-.1,4.74,4.74,0,1,0,5.07,4.38,4.11,4.11,0,0,0-.2-1.09L40,31.3V55.49A4.68,4.68,0,0,0,37.73,60a4.73,4.73,0,1,0,9.44-.7c0-.3-.1-.6-.1-.8L58.21,47.23a3.67,3.67,0,0,0,1.79.2A4.74,4.74,0,0,0,59.3,38Z"/></g></g></svg>