<svg xmlns="http://www.w3.org/2000/svg" viewBox="0 0 85 85"><defs><style>.b3016757-bfa0-4860-8b78-994c705cd248{fill:#fff;}</style></defs><g id="f24a6e06-4c39-4546-9d3b-44dfdb68d531" data-name="Layer 2"><g id="bbece0cb-1623-455c-92e2-af6202d4272d" data-name="Layer 1"><path class="b3016757-bfa0-4860-8b78-994c705cd248" d="M24.28,47.8a9,9,0,0,0,0,12.71l.21.21a9,9,0,0,0,12.71,0L48.91,49,36,36.09Z"/><path class="b3016757-bfa0-4860-8b78-994c705cd248" d="M42.5,0A42.5,42.5,0,1,0,85,42.5,42.5,42.5,0,0,0,42.5,0Zm23,41.84L41.84,65.46a15.72,15.72,0,0,1-22.1,0l-.2-.2a15.72,15.72,0,0,1,0-22.1L43.16,19.54a15.72,15.72,0,0,1,22.1,0l.2.2A15.72,15.72,0,0,1,65.46,41.84Z"/></g></g></svg>