<svg xmlns="http://www.w3.org/2000/svg" viewBox="0 0 85 85"><defs><style>.f6c4c856-4d3a-405d-85d1-ead87cef8dc8{fill:#fff;}</style></defs><g id="fd784444-9eae-42f2-9572-60250af55bca" data-name="Layer 2"><g id="a9617937-740c-4c56-b4b3-8770a84711cb" data-name="Layer 1"><path class="f6c4c856-4d3a-405d-85d1-ead87cef8dc8" d="M47.14,48.65H37.76A10.35,10.35,0,0,0,27.39,59v.31H57.51V59A10.35,10.35,0,0,0,47.14,48.65Z"/><path class="f6c4c856-4d3a-405d-85d1-ead87cef8dc8" d="M42.5,43.41a7.26,7.26,0,1,0-7.25-7.26A7.29,7.29,0,0,0,42.5,43.41Z"/><path class="f6c4c856-4d3a-405d-85d1-ead87cef8dc8" d="M42.5,0A42.5,42.5,0,1,0,85,42.5,42.5,42.5,0,0,0,42.5,0ZM69,59.63A9.42,9.42,0,0,1,59.63,69H25.37A9.42,9.42,0,0,1,16,59.63V25.37A9.42,9.42,0,0,1,25.37,16H59.63A9.42,9.42,0,0,1,69,25.37Z"/></g></g></svg>