<svg xmlns="http://www.w3.org/2000/svg" viewBox="0 0 85 85"><defs><style>.ab570f47-8676-4305-8c79-81e213d6ba0f{fill:#fff;}</style></defs><g id="ab4e284b-c59d-4ea9-a4bf-f718886a5451" data-name="Layer 2"><g id="f6bd68d3-4e74-4b6e-b656-7a4bbef605e0" data-name="Layer 1"><path class="ab570f47-8676-4305-8c79-81e213d6ba0f" d="M42.5,0A42.5,42.5,0,1,0,85,42.5,42.5,42.5,0,0,0,42.5,0ZM22.75,55.75A5.31,5.31,0,1,1,26.5,57.3,5.31,5.31,0,0,1,22.75,55.75ZM58.5,57.31A5.3,5.3,0,1,1,63.8,52,5.3,5.3,0,0,1,58.5,57.31ZM45.79,42.4V61.16A8.67,8.67,0,0,1,37.32,70H37a8,8,0,0,1-6.7-3.58,3.28,3.28,0,0,1,5.38-3.77,1.88,1.88,0,0,0,1.5.89,2.2,2.2,0,0,0,2-2.28V42.4H15a27.5,27.5,0,0,1,55,0Z"/></g></g></svg>