<svg xmlns="http://www.w3.org/2000/svg" viewBox="0 0 85 85"><defs><style>.ea220a08-7df3-45c5-a7da-fc052dceaabe{fill:#fff;}</style></defs><g id="b322ed15-c771-4974-8fc2-f06971a81f04" data-name="Layer 2"><g id="f80be22d-a7f6-4313-baa7-8affcc97f2b9" data-name="Layer 1"><path class="ea220a08-7df3-45c5-a7da-fc052dceaabe" d="M42.5,0A42.5,42.5,0,1,0,85,42.5,42.5,42.5,0,0,0,42.5,0ZM68.83,59.64A9.41,9.41,0,0,1,59.47,69H25.26A9.3,9.3,0,0,1,16,59.74V25.53a9.41,9.41,0,0,1,9.36-9.36h31L40.55,32a2.38,2.38,0,0,0-.7,1.31l-2,11.37a2.42,2.42,0,0,0,2.81,2.82l11.38-2a2.39,2.39,0,0,0,1.3-.7l15.5-15.5ZM44.38,36.4,49,41l-5.64,1ZM72.15,19,53,38.11,47.2,32.27,66.31,13.15a.39.39,0,0,1,.61,0l5.23,5.23A.39.39,0,0,1,72.15,19Z"/></g></g></svg>