<svg xmlns="http://www.w3.org/2000/svg" viewBox="0 0 85 85"><defs><style>.a3d1ecc1-742e-49bf-97d8-d1c7c78f45c6{fill:#fff;}</style></defs><g id="fc5d7fd9-862d-43c4-9133-c6095ff6cd61" data-name="Layer 2"><g id="e7ab08d7-6663-4010-a39a-002f8d08795a" data-name="Layer 1"><path class="a3d1ecc1-742e-49bf-97d8-d1c7c78f45c6" d="M45.92,52.56H39a2.45,2.45,0,1,0,0,4.89h6.94a2.45,2.45,0,0,0,0-4.89Z"/><path class="a3d1ecc1-742e-49bf-97d8-d1c7c78f45c6" d="M38.06,44.1a3.34,3.34,0,0,0-1.22-4.59l-6-3.47a3.36,3.36,0,0,0-3.36,5.81l6,3.47A3.32,3.32,0,0,0,38.06,44.1Z"/><path class="a3d1ecc1-742e-49bf-97d8-d1c7c78f45c6" d="M42.5,0A42.5,42.5,0,1,0,85,42.5,42.5,42.5,0,0,0,42.5,0ZM65.8,56.54A26.92,26.92,0,0,1,18.08,31.76L14,18.71l10.4,2.34,1.84.41A27,27,0,0,1,56,19.62a21.26,21.26,0,0,1,2.75,1.84l1.84-.41L71,18.71,66.92,31.76A26.7,26.7,0,0,1,65.8,56.54Z"/><path class="a3d1ecc1-742e-49bf-97d8-d1c7c78f45c6" d="M54.07,36l-6,3.47a3.36,3.36,0,1,0,3.36,5.81l6-3.47A3.36,3.36,0,1,0,54.07,36Z"/></g></g></svg>