<svg xmlns="http://www.w3.org/2000/svg" viewBox="0 0 85 85"><g id="be8b4fde-35ae-4853-8a57-00249700b191" data-name="Layer 2"><g id="b34da84a-a721-4800-bf3b-8cb9bd1cc188" data-name="Layer 1"><path d="M32.82,30.27c.2-.1.4-.3,0,0Z"/><path d="M42.5,0A42.5,42.5,0,1,0,85,42.5,42.5,42.5,0,0,0,42.5,0ZM61.42,26.37a3.2,3.2,0,0,1,4.6,0,11,11,0,0,1,1,1.1,3.23,3.23,0,0,1-.6,4.6,3.32,3.32,0,0,1-4.6-.6c-.1-.2-.3-.3-.4-.5A3.2,3.2,0,0,1,61.42,26.37ZM16,38.77a26,26,0,0,1,3.6-10.9,24.09,24.09,0,0,1,6.1-7A25,25,0,0,1,36,15.77a26.65,26.65,0,0,1,22.5,4.7,3.28,3.28,0,1,1-4,5.2,19.8,19.8,0,0,0-24.7.3,21.17,21.17,0,0,0-4.6,5.3,19.88,19.88,0,0,0-2.7,8.2,3.41,3.41,0,0,1-3.6,2.9A3.26,3.26,0,0,1,16,38.77Zm15.7,23.5a3.44,3.44,0,0,1-4.6.7,26.62,26.62,0,0,1-10-13.8,3.29,3.29,0,0,1,6.3-1.9,19.85,19.85,0,0,0,7.5,10.4A3.33,3.33,0,0,1,31.72,62.27Zm13.8,7.1a4.14,4.14,0,0,1-5,.8,3.23,3.23,0,0,1-.9-4.5,6.08,6.08,0,0,0,1.1-4.5c-.2-1.3-1.1-2.9-3.2-4.5-.2-.1-.7-.5-1.4-.9a20.09,20.09,0,0,1-2.7-2.1,18,18,0,0,1-5.3-8.5v-.1a14.77,14.77,0,0,1,4.7-14.8,15.48,15.48,0,0,1,6-3.1,12.19,12.19,0,0,1,3.2-.4,15.81,15.81,0,0,1,3.8.4h.1a17.2,17.2,0,0,1,4,1.4,31.71,31.71,0,0,1,10.5,8.3,3.26,3.26,0,1,1-4.9,4.3,25.16,25.16,0,0,0-8.2-6.6,18.08,18.08,0,0,0-2.7-1h-.1a5.66,5.66,0,0,0-2.2-.2,8.81,8.81,0,0,0-1.7.2,7.43,7.43,0,0,0-3.3,1.7.1.1,0,0,0-.1.1,8.11,8.11,0,0,0-2.8,7.1l.2,1.1.3.8a11.73,11.73,0,0,0,3.2,4.6,29.32,29.32,0,0,0,3.7,2.6C48.62,56.67,49.22,63.67,45.52,69.37Zm10.4-1.2a3.41,3.41,0,0,1-3.3-3.4c.2-9.1-3.4-16-11.7-20.5a3.24,3.24,0,1,1,3.1-5.7c10.6,5.7,15.4,14.9,15.2,26.4A3.18,3.18,0,0,1,55.92,68.17Zm10.6-14.3a3.5,3.5,0,0,1-4.3-1.9c-.6-1.5-1.3-3-2-4.5a3.29,3.29,0,1,1,5.9-2.9c.8,1.7,1.6,3.4,2.3,5.1A3.18,3.18,0,0,1,66.52,53.87Z"/></g></g></svg>