<svg xmlns="http://www.w3.org/2000/svg" viewBox="0 0 85 85"><g id="bbc99470-c2dd-4724-b5bc-db1bfa7cc8f2" data-name="Layer 2"><g id="b8d3e93f-e6b5-4131-bc9a-092fd0f8a4a2" data-name="Layer 1"><path d="M42.5,0A42.5,42.5,0,1,0,85,42.5,42.5,42.5,0,0,0,42.5,0ZM65.12,49.72l-1.6.5h-.2c-1.1.2-2.1.4-3.2.5-7,.5-11.8-2.8-16.1-4.6-3.3-1.4-6.5-2-10.5.1l-.6.3,4.8,17.7a3.26,3.26,0,0,1-2.3,4,3.16,3.16,0,0,1-3.9-2.3l-12.4-45.8a3.26,3.26,0,1,1,6.3-1.7l.3,1.3c7.4-4,11.8-2.1,16,.4s7.9,5.3,14.3,3.4l1.6-.5a2.54,2.54,0,0,1,3.3,1.7l5.9,21.9A2.53,2.53,0,0,1,65.12,49.72Z"/></g></g></svg>