<svg xmlns="http://www.w3.org/2000/svg" viewBox="0 0 85 85"><defs><style>.a4987ebd-fa5d-46cc-8fbd-fc11ef782912{fill:none;}.f71cd611-456b-408e-9c60-6f3386604f5d{fill:#fff;fill-rule:evenodd;}</style></defs><g id="aee4204b-476e-48be-b88c-cd1b402d695d" data-name="Layer 2"><g id="f069c126-3d59-4735-b813-524dfca81701" data-name="Layer 1"><circle class="a4987ebd-fa5d-46cc-8fbd-fc11ef782912" cx="42.5" cy="42.5" r="42.5"/><path class="f71cd611-456b-408e-9c60-6f3386604f5d" d="M16,59.63V46.33H26.42V38.77h5.66v7.56H42V52H35.32V62.85H42V69H25.31A9.35,9.35,0,0,1,16,59.63ZM52.92,47.74V42.1H46.24V35.45h6.68V21.24H46.24V16.1H59.59A9.44,9.44,0,0,1,69,25.47V42.1H61.92v5.64ZM16,42.1V25.37A9.44,9.44,0,0,1,25.41,16H42.1v9.47h6.67v5.64H42.1V42H36.43V34.44H22.17V42H16Z"/></g></g></svg>