<svg xmlns="http://www.w3.org/2000/svg" viewBox="0 0 85 85"><defs><style>.b03e094d-b166-49e9-a6f4-10f8152fb5ca{fill:none;}.ae734664-d7a4-4581-b931-b41634507a9b{fill:#fff;fill-rule:evenodd;}</style></defs><g id="a6a0891f-e9c7-4adc-9034-b08401e0270d" data-name="Layer 2"><g id="f91a1877-104d-4b96-a4a2-5ea1f6565921" data-name="Layer 1"><circle class="b03e094d-b166-49e9-a6f4-10f8152fb5ca" cx="42.5" cy="42.5" r="42.5"/><path class="ae734664-d7a4-4581-b931-b41634507a9b" d="M19.74,65.46l-.2-.2a15.72,15.72,0,0,1,0-22.1L43.16,19.54a15.72,15.72,0,0,1,22.1,0l.2.2a15.72,15.72,0,0,1,0,22.1L41.84,65.46A15.72,15.72,0,0,1,19.74,65.46ZM37.2,60.72,48.91,49,36,36.09,24.28,47.8a9,9,0,0,0,0,12.71l.21.21A9,9,0,0,0,37.2,60.72Z"/></g></g></svg>