<svg xmlns="http://www.w3.org/2000/svg" viewBox="0 0 85 85"><defs><style>.b5464c72-a3a1-4974-be7b-74f74b718c60{fill:none;}.a524a9be-08c8-482e-8af2-ef653c1bc239{fill:#fff;fill-rule:evenodd;}</style></defs><g id="e270d6aa-2fc8-4687-b087-e1f7c4c428e8" data-name="Layer 2"><g id="f6cbb7af-b35f-4c93-a9ab-451ae2dff480" data-name="Layer 1"><circle class="b5464c72-a3a1-4974-be7b-74f74b718c60" cx="42.5" cy="42.5" r="42.5"/><path class="a524a9be-08c8-482e-8af2-ef653c1bc239" d="M16,59.63V25.37A9.42,9.42,0,0,1,25.37,16H59.63A9.42,9.42,0,0,1,69,25.37V59.63A9.42,9.42,0,0,1,59.63,69H25.37A9.42,9.42,0,0,1,16,59.63Zm41.51-.3V59A10.35,10.35,0,0,0,47.14,48.65H37.76A10.35,10.35,0,0,0,27.39,59v.31ZM49.75,36.15a7.25,7.25,0,1,0-7.25,7.26A7.22,7.22,0,0,0,49.75,36.15Z"/></g></g></svg>