<svg xmlns="http://www.w3.org/2000/svg" viewBox="0 0 85 85"><defs><style>.fb7d7e28-b52b-4327-b60b-cda3f34d48eb{fill:none;}.ae44d618-9c93-4dc6-99b6-7562f6088ca6{fill:#fff;}</style></defs><g id="a19cc4da-bfd3-4166-9a12-d992ac7a4d3c" data-name="Layer 2"><g id="adff3ee4-20ad-4503-a02e-9cc2647ea240" data-name="Layer 1"><circle class="fb7d7e28-b52b-4327-b60b-cda3f34d48eb" cx="42.5" cy="42.5" r="42.5"/><path class="ae44d618-9c93-4dc6-99b6-7562f6088ca6" d="M22.75,55.75A5.31,5.31,0,1,1,26.5,57.3,5.31,5.31,0,0,1,22.75,55.75ZM53.2,52a5.3,5.3,0,1,1,5.3,5.3A5.3,5.3,0,0,1,53.2,52ZM30.34,66.42a3.28,3.28,0,0,1,5.38-3.77,1.88,1.88,0,0,0,1.5.89,2.2,2.2,0,0,0,2-2.28V42.4H15a27.5,27.5,0,0,1,55,0H45.79V61.16A8.67,8.67,0,0,1,37.32,70H37A8,8,0,0,1,30.34,66.42Z"/></g></g></svg>