<svg xmlns="http://www.w3.org/2000/svg" viewBox="0 0 85 85"><defs><style>.a8b74640-b4be-487c-8d88-a849c7abcbc5{fill:none;}.ac2647a7-7600-4d67-8028-d93cd33500f7{fill:#fff;fill-rule:evenodd;}</style></defs><g id="a0e8d00e-056e-4b12-9234-128e19e2ac11" data-name="Layer 2"><g id="b8ab30d9-48cd-498f-99fa-acee1a00890e" data-name="Layer 1"><circle class="a8b74640-b4be-487c-8d88-a849c7abcbc5" cx="42.5" cy="42.5" r="42.5"/><path class="ac2647a7-7600-4d67-8028-d93cd33500f7" d="M60.54,39.9a5,5,0,1,0-5,5A5,5,0,0,0,60.54,39.9Zm-13.07,0a5,5,0,1,0-5,5A5,5,0,0,0,47.47,39.9Zm-13.08,0a5,5,0,1,0-5,5A5,5,0,0,0,34.39,39.9Zm-11,32.73V57.53C16.46,53.38,12,47,12,39.8,12,27.23,25.68,17,42.5,17S73,27.23,73,39.8,59.32,62.6,42.5,62.6a35.65,35.65,0,0,1-8.82-1Z"/></g></g></svg>