<svg xmlns="http://www.w3.org/2000/svg" viewBox="0 0 85 85"><defs><style>.a17a8625-6558-418a-bf54-61adfaf4161c{fill:none;}.ae1a696d-def7-49fc-9307-2f5194d5d47b{fill:#fff;fill-rule:evenodd;}</style></defs><g id="fa36ba41-79f0-44e3-98c8-008f06f59245" data-name="Layer 2"><g id="b42b438f-6b49-4169-8ab5-83f166145b37" data-name="Layer 1"><circle class="a17a8625-6558-418a-bf54-61adfaf4161c" cx="42.5" cy="42.5" r="42.5"/><path class="ae1a696d-def7-49fc-9307-2f5194d5d47b" d="M20,61.53V16H57.5A7.44,7.44,0,0,1,65,23.47V69H27.5A7.5,7.5,0,0,1,20,61.53Zm24.2-8.48a2.44,2.44,0,0,0-2.4-2.42h-9a2.42,2.42,0,0,0,0,4.84h9A2.44,2.44,0,0,0,44.2,53.05ZM54.7,40.73a2.44,2.44,0,0,0-2.4-2.42H32.7a2.43,2.43,0,0,0,0,4.85H52.3A2.45,2.45,0,0,0,54.7,40.73Zm0-12.31A2.45,2.45,0,0,0,52.3,26H32.7a2.43,2.43,0,0,0,0,4.85H52.3A2.44,2.44,0,0,0,54.7,28.42Z"/></g></g></svg>