<svg xmlns="http://www.w3.org/2000/svg" viewBox="0 0 85 85"><defs><style>.aab4f4a4-4f32-4d1f-9374-07ce68eebdc9{fill:none;}.a5918bc4-abb6-4fef-b093-ee4fee2a0d13{fill:#fff;fill-rule:evenodd;}</style></defs><g id="ec9d1c01-d1be-4b4c-a851-8c07308af2f5" data-name="Layer 2"><g id="bc9c8b0e-0643-4c9d-8df9-0f6043c488db" data-name="Layer 1"><circle class="aab4f4a4-4f32-4d1f-9374-07ce68eebdc9" cx="42.5" cy="42.5" r="42.5"/><path class="a5918bc4-abb6-4fef-b093-ee4fee2a0d13" d="M65.8,56.54a26.7,26.7,0,0,0,1.12-24.78l4.08-13L60.6,21.05l-1.84.41A21.26,21.26,0,0,0,56,19.62a27,27,0,0,0-29.77,1.84l-1.84-.41L14,18.71l4.08,13.05A26.92,26.92,0,0,0,65.8,56.54Zm-19.88.91H39a2.45,2.45,0,1,1,0-4.89h6.94a2.45,2.45,0,0,1,0,4.89Zm.91-13.35a3.35,3.35,0,0,1,1.23-4.59l6-3.47a3.36,3.36,0,1,1,3.37,5.81l-6,3.47A3.34,3.34,0,0,1,46.83,44.1ZM33.48,45.32l-6-3.47A3.36,3.36,0,0,1,30.82,36l6,3.47a3.36,3.36,0,0,1-3.36,5.81Z"/></g></g></svg>