<svg xmlns="http://www.w3.org/2000/svg" viewBox="0 0 85 85"><defs><style>.a51f091a-17e2-439c-854c-f7734aa71508{fill:#39b2c1;}.a2bceb93-df38-4438-b341-bb0acb3fe9ef{fill:#fff;}</style></defs><g id="f240a01c-2f49-41f3-b262-a14ac3ce4dda" data-name="Layer 2"><g id="a40cf6cd-defa-46d5-b28e-ca0bfe0358b3" data-name="Layer 1"><circle class="a51f091a-17e2-439c-854c-f7734aa71508" cx="42.5" cy="42.5" r="42.5"/><path class="a2bceb93-df38-4438-b341-bb0acb3fe9ef" d="M22.75,55.75A5.31,5.31,0,1,1,26.5,57.3,5.31,5.31,0,0,1,22.75,55.75ZM53.2,52a5.3,5.3,0,1,1,5.3,5.3A5.3,5.3,0,0,1,53.2,52ZM30.34,66.42a3.28,3.28,0,0,1,5.38-3.77,1.88,1.88,0,0,0,1.5.89,2.2,2.2,0,0,0,2-2.28V42.4H15a27.5,27.5,0,0,1,55,0H45.79V61.16A8.67,8.67,0,0,1,37.32,70H37A8,8,0,0,1,30.34,66.42Z"/></g></g></svg>