<svg xmlns="http://www.w3.org/2000/svg" viewBox="0 0 85 85"><defs><style>.b6e24bf9-054e-4dca-b320-0078b0dacc1a{fill:#505657;}.e7fe82e5-9a6c-48d0-b92e-8aa819f4d340{fill:#fff;fill-rule:evenodd;}</style></defs><g id="ab3750b6-6853-48b8-8331-170ce080b104" data-name="Layer 2"><g id="b72fdff8-bd3d-4751-9b23-333276372938" data-name="Layer 1"><circle class="b6e24bf9-054e-4dca-b320-0078b0dacc1a" cx="42.5" cy="42.5" r="42.5"/><path class="e7fe82e5-9a6c-48d0-b92e-8aa819f4d340" d="M60.54,39.9a5,5,0,1,0-5,5A5,5,0,0,0,60.54,39.9Zm-13.07,0a5,5,0,1,0-5,5A5,5,0,0,0,47.47,39.9Zm-13.08,0a5,5,0,1,0-5,5A5,5,0,0,0,34.39,39.9Zm-11,32.73V57.53C16.46,53.38,12,47,12,39.8,12,27.23,25.68,17,42.5,17S73,27.23,73,39.8,59.32,62.6,42.5,62.6a35.65,35.65,0,0,1-8.82-1Z"/></g></g></svg>