<svg xmlns="http://www.w3.org/2000/svg" viewBox="0 0 85 85"><defs><style>.e3b92b2c-c2ee-4aed-9e2d-75540af4f8c5{fill:#e61b5c;}.e4ebfc51-cc78-412e-9b2e-2b05d89d7dc1{fill:#fff;fill-rule:evenodd;}</style></defs><g id="f5a0c3fc-64ab-4d15-934e-447006f4eeaa" data-name="Layer 2"><g id="e3c5f3d2-98c6-407f-a3b2-6284d1be0d56" data-name="Layer 1"><circle class="e3b92b2c-c2ee-4aed-9e2d-75540af4f8c5" cx="42.5" cy="42.5" r="42.5"/><path class="e4ebfc51-cc78-412e-9b2e-2b05d89d7dc1" d="M65.8,56.54a26.7,26.7,0,0,0,1.12-24.78l4.08-13L60.6,21.05l-1.84.41A21.26,21.26,0,0,0,56,19.62a27,27,0,0,0-29.77,1.84l-1.84-.41L14,18.71l4.08,13.05A26.92,26.92,0,0,0,65.8,56.54Zm-19.88.91H39a2.45,2.45,0,1,1,0-4.89h6.94a2.45,2.45,0,0,1,0,4.89Zm.91-13.35a3.35,3.35,0,0,1,1.23-4.59l6-3.47a3.36,3.36,0,1,1,3.37,5.81l-6,3.47A3.34,3.34,0,0,1,46.83,44.1ZM33.48,45.32l-6-3.47A3.36,3.36,0,0,1,30.82,36l6,3.47a3.36,3.36,0,0,1-3.36,5.81Z"/></g></g></svg>