<svg xmlns="http://www.w3.org/2000/svg" viewBox="0 0 85 85"><defs><style>.bba7634f-2f3b-4a69-a40d-7c73d85eeb42{fill:none;}.f06b663c-1bab-4992-bc45-6ef642dec9c1{fill-rule:evenodd;}</style></defs><g id="fc6044ae-4dab-466f-8b86-60cf682397f4" data-name="Layer 2"><g id="a0d42de9-e146-4553-8c49-36fbb4162339" data-name="Layer 1"><circle class="bba7634f-2f3b-4a69-a40d-7c73d85eeb42" cx="42.5" cy="42.5" r="42.5"/><path class="f06b663c-1bab-4992-bc45-6ef642dec9c1" d="M16,59.63V25.37A9.42,9.42,0,0,1,25.37,16H59.63A9.42,9.42,0,0,1,69,25.37V59.63A9.42,9.42,0,0,1,59.63,69H25.37A9.42,9.42,0,0,1,16,59.63Zm41.51-.3V59A10.35,10.35,0,0,0,47.14,48.65H37.76A10.35,10.35,0,0,0,27.39,59v.31ZM49.75,36.15a7.25,7.25,0,1,0-7.25,7.26A7.22,7.22,0,0,0,49.75,36.15Z"/></g></g></svg>