<?xml version="1.0" encoding="UTF-8"?>
<svg id="Layer_2" data-name="Layer 2" xmlns="http://www.w3.org/2000/svg" viewBox="0 0 85 85">
  <defs>
    <style>
      .cls-1 {
        fill: none;
      }
    </style>
  </defs>
  <g id="Layer_1-2" data-name="Layer 1">
    <g>
      <circle class="cls-1" cx="42.5" cy="42.5" r="42.5"/>
      <g>
        <path d="m15.94,59.64c0,5.14,4.24,9.37,9.38,9.37h15.05v-24.43H15.94v15.06Zm13.22-10.25c3.54,0,6.41,2.87,6.41,6.41s-2.87,6.41-6.41,6.41-6.41-2.87-6.41-6.41,2.87-6.41,6.41-6.41Z"/>
        <path d="m44.52,69.01h15.05c5.14,0,9.37-4.23,9.37-9.37v-15.06h-24.42v24.43Zm11.21-19.62c3.54,0,6.41,2.87,6.41,6.41s-2.87,6.41-6.41,6.41-6.41-2.87-6.41-6.41,2.87-6.41,6.41-6.41Z"/>
        <path d="m15.94,25.38v15.06h24.43v-24.43h-15.05c-5.14,0-9.38,4.23-9.38,9.37Zm19.63,3.84c0,3.54-2.87,6.41-6.41,6.41s-6.41-2.87-6.41-6.41,2.87-6.41,6.41-6.41,6.41,2.87,6.41,6.41Z"/>
        <path d="m59.57,16.01h-15.05v24.43h24.42v-15.06c0-5.14-4.23-9.37-9.37-9.37Zm-3.84,19.62c-3.54,0-6.41-2.87-6.41-6.41s2.87-6.41,6.41-6.41,6.41,2.87,6.41,6.41-2.87,6.41-6.41,6.41Z"/>
      </g>
    </g>
  </g>
</svg>