<svg xmlns="http://www.w3.org/2000/svg" viewBox="0 0 85 85"><defs><style>.f5fb9c93-f8e2-4a03-bd5c-9879dcd0da52{fill:none;}.f507044e-680f-446e-b140-f0a4629d0d61{fill-rule:evenodd;}</style></defs><g id="a9b48baa-d540-4b23-80b3-198d365e16ad" data-name="Layer 2"><g id="ef9a448e-b5ae-4e0c-9f94-e87458d99bc3" data-name="Layer 1"><circle class="f5fb9c93-f8e2-4a03-bd5c-9879dcd0da52" cx="42.5" cy="42.5" r="42.5"/><path class="f507044e-680f-446e-b140-f0a4629d0d61" d="M16,59.74V25.53a9.41,9.41,0,0,1,9.36-9.36h31L40.55,32a2.38,2.38,0,0,0-.7,1.31l-2,11.37a2.42,2.42,0,0,0,2.81,2.82l11.38-2a2.39,2.39,0,0,0,1.3-.7l15.5-15.5V59.64A9.41,9.41,0,0,1,59.47,69H25.26A9.3,9.3,0,0,1,16,59.74ZM43.37,42l1-5.63L49,41ZM53,38.11,47.2,32.27,66.31,13.15a.39.39,0,0,1,.61,0l5.23,5.23a.39.39,0,0,1,0,.61Z"/></g></g></svg>