<svg xmlns="http://www.w3.org/2000/svg" viewBox="0 0 85 85"><defs><style>.e54c75d9-a7e6-49d8-b59f-37a5db9eed90{fill:none;}.bf1e2ce8-d6a7-4696-876a-cfcde9e9c793{fill-rule:evenodd;}</style></defs><g id="b9561cf3-9743-45cd-b8e2-35d83bd7cea5" data-name="Layer 2"><g id="f5249cbb-78b2-45ba-a0dc-1febe47c7a2a" data-name="Layer 1"><circle class="e54c75d9-a7e6-49d8-b59f-37a5db9eed90" cx="42.5" cy="42.5" r="42.5"/><path class="bf1e2ce8-d6a7-4696-876a-cfcde9e9c793" d="M60.54,39.9a5,5,0,1,0-5,5A5,5,0,0,0,60.54,39.9Zm-13.07,0a5,5,0,1,0-5,5A5,5,0,0,0,47.47,39.9Zm-13.08,0a5,5,0,1,0-5,5A5,5,0,0,0,34.39,39.9Zm-11,32.73V57.53C16.46,53.38,12,47,12,39.8,12,27.23,25.68,17,42.5,17S73,27.23,73,39.8,59.32,62.6,42.5,62.6a35.65,35.65,0,0,1-8.82-1Z"/></g></g></svg>