<svg xmlns="http://www.w3.org/2000/svg" viewBox="0 0 85 85"><defs><style>.bfb5e215-1b5f-42e8-8a11-fb79ab71e4ca{fill:none;}</style></defs><g id="f0738e5f-a4f7-4e36-a377-f01e0a745bbf" data-name="Layer 2"><g id="af28a525-7fa3-4af6-aa99-fe1600bde95d" data-name="Layer 1"><circle class="bfb5e215-1b5f-42e8-8a11-fb79ab71e4ca" cx="42.5" cy="42.5" r="42.5"/><path d="M31.52,65.92l-12.4-45.8a3.26,3.26,0,1,1,6.3-1.7l.3,1.3c7.4-4,11.8-2.1,16,.4s7.9,5.3,14.3,3.4l1.6-.5a2.54,2.54,0,0,1,3.3,1.7l5.9,21.9a2.53,2.53,0,0,1-1.7,3.1l-1.6.5h-.2c-1.1.2-2.1.4-3.2.5-7,.5-11.8-2.8-16.1-4.6-3.3-1.4-6.5-2-10.5.1l-.6.3,4.8,17.7a3.26,3.26,0,0,1-2.3,4A3.16,3.16,0,0,1,31.52,65.92Z"/></g></g></svg>