<svg xmlns="http://www.w3.org/2000/svg" viewBox="0 0 85 85"><defs><style>.b1f7393f-81ae-4734-848d-09f819fc47e3{fill:none;}.a90e68b9-1b58-4fd1-877e-ac959b1d4429{fill:#929697;fill-rule:evenodd;}</style></defs><g id="e50d8a97-29b6-497e-af19-74b880c69e25" data-name="Layer 2"><g id="e5778fc3-0fa0-4c17-ac18-0565a08768ef" data-name="Layer 1"><circle class="b1f7393f-81ae-4734-848d-09f819fc47e3" cx="42.5" cy="42.5" r="42.5"/><path class="a90e68b9-1b58-4fd1-877e-ac959b1d4429" d="M16,59.63V25.37A9.42,9.42,0,0,1,25.37,16H59.63A9.42,9.42,0,0,1,69,25.37V59.63A9.42,9.42,0,0,1,59.63,69H25.37A9.42,9.42,0,0,1,16,59.63Zm41.51-.3V59A10.35,10.35,0,0,0,47.14,48.65H37.76A10.35,10.35,0,0,0,27.39,59v.31ZM49.75,36.15a7.25,7.25,0,1,0-7.25,7.26A7.22,7.22,0,0,0,49.75,36.15Z"/></g></g></svg>