<svg xmlns="http://www.w3.org/2000/svg" viewBox="0 0 85 85"><defs><style>.f85a3a0a-8499-418e-89fb-948006a1de24{fill:none;}.fd3bc626-e97c-452e-9fb6-6cae5e4e27ca{fill:#505657;fill-rule:evenodd;}</style></defs><g id="bc632991-b5e1-4af2-add5-afc32cb5f69e" data-name="Layer 2"><g id="b1e91e20-4f84-42ad-9e5c-9c7f39f706c5" data-name="Layer 1"><circle class="f85a3a0a-8499-418e-89fb-948006a1de24" cx="42.5" cy="42.5" r="42.5"/><path class="fd3bc626-e97c-452e-9fb6-6cae5e4e27ca" d="M16,59.74V25.53a9.41,9.41,0,0,1,9.36-9.36h31L40.55,32a2.38,2.38,0,0,0-.7,1.31l-2,11.37a2.42,2.42,0,0,0,2.81,2.82l11.38-2a2.39,2.39,0,0,0,1.3-.7l15.5-15.5V59.64A9.41,9.41,0,0,1,59.47,69H25.26A9.3,9.3,0,0,1,16,59.74ZM43.37,42l1-5.63L49,41ZM53,38.11,47.2,32.27,66.31,13.15a.39.39,0,0,1,.61,0l5.23,5.23a.39.39,0,0,1,0,.61Z"/></g></g></svg>