<svg xmlns="http://www.w3.org/2000/svg" viewBox="0 0 85 85"><defs><style>.bccde741-5cdc-4fc8-ab0f-1bb26dc34160{fill:none;}.b74430ff-26de-42b3-90a7-a4506cb6ac76{fill:#769279;fill-rule:evenodd;}</style></defs><g id="b12bbab7-d3a0-44dd-8084-982827a2b471" data-name="Layer 2"><g id="b965871f-a592-494a-b6d8-0f863c491b8c" data-name="Layer 1"><circle class="bccde741-5cdc-4fc8-ab0f-1bb26dc34160" cx="42.5" cy="42.5" r="42.5"/><path class="b74430ff-26de-42b3-90a7-a4506cb6ac76" d="M20,61.53V16H57.5A7.44,7.44,0,0,1,65,23.47V69H27.5A7.5,7.5,0,0,1,20,61.53Zm24.2-8.48a2.44,2.44,0,0,0-2.4-2.42h-9a2.42,2.42,0,0,0,0,4.84h9A2.44,2.44,0,0,0,44.2,53.05ZM54.7,40.73a2.44,2.44,0,0,0-2.4-2.42H32.7a2.43,2.43,0,0,0,0,4.85H52.3A2.45,2.45,0,0,0,54.7,40.73Zm0-12.31A2.45,2.45,0,0,0,52.3,26H32.7a2.43,2.43,0,0,0,0,4.85H52.3A2.44,2.44,0,0,0,54.7,28.42Z"/></g></g></svg>