<svg xmlns="http://www.w3.org/2000/svg" viewBox="0 0 85 85"><defs><style>.bc446b41-6ec1-47a1-9738-6e00f2e9cddc{fill:none;}.e5fe5eeb-ea01-436b-89c5-0eb9e6ef5c0b{fill:#e61b5c;fill-rule:evenodd;}</style></defs><g id="ba9a8456-3676-41f4-aa4f-4824bfb172a2" data-name="Layer 2"><g id="ba59e4dc-e8e3-4307-a2f1-96a104131b3f" data-name="Layer 1"><circle class="bc446b41-6ec1-47a1-9738-6e00f2e9cddc" cx="42.5" cy="42.5" r="42.5"/><path class="e5fe5eeb-ea01-436b-89c5-0eb9e6ef5c0b" d="M65.8,56.54a26.7,26.7,0,0,0,1.12-24.78l4.08-13L60.6,21.05l-1.84.41A21.26,21.26,0,0,0,56,19.62a27,27,0,0,0-29.77,1.84l-1.84-.41L14,18.71l4.08,13.05A26.92,26.92,0,0,0,65.8,56.54Zm-19.88.91H39a2.45,2.45,0,1,1,0-4.89h6.94a2.45,2.45,0,0,1,0,4.89Zm.91-13.35a3.35,3.35,0,0,1,1.23-4.59l6-3.47a3.36,3.36,0,1,1,3.37,5.81l-6,3.47A3.34,3.34,0,0,1,46.83,44.1ZM33.48,45.32l-6-3.47A3.36,3.36,0,0,1,30.82,36l6,3.47a3.36,3.36,0,0,1-3.36,5.81Z"/></g></g></svg>