<svg xmlns="http://www.w3.org/2000/svg" viewBox="0 0 85 85"><defs><style>.aa5ded59-2329-448e-a253-290f9f48ac98{fill:#2277b5;}.f4c7b95e-0b5c-4b84-a3d0-3f470f8d3889{fill:#fff;fill-rule:evenodd;}</style></defs><g id="fb193644-510e-46cb-b1e4-16d7e1689b4c" data-name="Layer 2"><g id="ab515f12-688e-487f-ad78-3f90af0dbf2d" data-name="Layer 1"><circle class="aa5ded59-2329-448e-a253-290f9f48ac98" cx="42.5" cy="42.5" r="42.5"/><path class="f4c7b95e-0b5c-4b84-a3d0-3f470f8d3889" d="M48.37,15.46,69.54,36.58a8.35,8.35,0,0,1,0,11.84L48.37,69.54a8.34,8.34,0,0,1-11.83,0L15.46,48.42a8.35,8.35,0,0,1,0-11.84L36.54,15.46A8.34,8.34,0,0,1,48.37,15.46ZM37.73,26.82l-10.94,11a5.57,5.57,0,0,0-1.29-.1,4.74,4.74,0,1,0,5.07,4.38,4.11,4.11,0,0,0-.2-1.09L40,31.3V55.49A4.68,4.68,0,0,0,37.73,60a4.73,4.73,0,1,0,9.44-.7c0-.3-.1-.6-.1-.8L58.21,47.23a3.67,3.67,0,0,0,1.79.2,4.74,4.74,0,1,0-5.07-4.38.9.9,0,0,0,.1.5L44.89,53.6V30.4a4.66,4.66,0,0,0,2.28-4.48,4.76,4.76,0,0,0-5.07-4.38A5,5,0,0,0,37.73,26.82Z"/></g></g></svg>