<svg xmlns="http://www.w3.org/2000/svg" viewBox="0 0 85 85"><defs><style>.f9a26ec3-c0f2-4df1-9a58-6f839e264d8a{fill:#a1c628;}.b28f503b-229d-4550-8e8b-2383ef05a787{fill:#fff;fill-rule:evenodd;}</style></defs><g id="b66de1ba-b9e0-447a-99ae-b91c77b9db9f" data-name="Layer 2"><g id="be7c4c1c-ca5d-4258-ad12-b1d2bfd4695d" data-name="Layer 1"><circle class="f9a26ec3-c0f2-4df1-9a58-6f839e264d8a" cx="42.5" cy="42.5" r="42.5"/><path class="b28f503b-229d-4550-8e8b-2383ef05a787" d="M19.74,65.46l-.2-.2a15.72,15.72,0,0,1,0-22.1L43.16,19.54a15.72,15.72,0,0,1,22.1,0l.2.2a15.72,15.72,0,0,1,0,22.1L41.84,65.46A15.72,15.72,0,0,1,19.74,65.46ZM37.2,60.72,48.91,49,36,36.09,24.28,47.8a9,9,0,0,0,0,12.71l.21.21A9,9,0,0,0,37.2,60.72Z"/></g></g></svg>