<svg xmlns="http://www.w3.org/2000/svg" viewBox="0 0 85 85"><defs><style>.bf916aae-428f-4d93-a6d4-333fe4026470{fill:#929697;}.f5e1ede9-ec4a-454f-b029-f5156eb79232{fill:#fff;fill-rule:evenodd;}</style></defs><g id="eaa6cd62-4d1f-45a3-9c51-8290d9f76ad8" data-name="Layer 2"><g id="bf60631b-dd68-420b-8566-edd656fd07f4" data-name="Layer 1"><circle class="bf916aae-428f-4d93-a6d4-333fe4026470" cx="42.5" cy="42.5" r="42.5"/><path class="f5e1ede9-ec4a-454f-b029-f5156eb79232" d="M16,59.63V25.37A9.42,9.42,0,0,1,25.37,16H59.63A9.42,9.42,0,0,1,69,25.37V59.63A9.42,9.42,0,0,1,59.63,69H25.37A9.42,9.42,0,0,1,16,59.63Zm41.51-.3V59A10.35,10.35,0,0,0,47.14,48.65H37.76A10.35,10.35,0,0,0,27.39,59v.31ZM49.75,36.15a7.25,7.25,0,1,0-7.25,7.26A7.22,7.22,0,0,0,49.75,36.15Z"/></g></g></svg>