<svg xmlns="http://www.w3.org/2000/svg" viewBox="0 0 85 85"><defs><style>.b5f596c2-f62e-4961-92b7-f7e240a3040d{fill:#fcb617;}.e48e0633-05e7-4a89-8c0f-34acb3d8bbb8{fill:#fff;}</style></defs><g id="a41d274b-4cb2-4735-868a-e56476fab890" data-name="Layer 2"><g id="e43aea6f-8904-420e-80d2-e5d5a76d11f3" data-name="Layer 1"><circle class="b5f596c2-f62e-4961-92b7-f7e240a3040d" cx="42.5" cy="42.5" r="42.5"/><path class="e48e0633-05e7-4a89-8c0f-34acb3d8bbb8" d="M63.59,44.88a3.36,3.36,0,0,1,0-4.75L73,30.72a.87.87,0,0,0-.62-1.49H59.13a3.36,3.36,0,0,1-3.36-3.35V12.58A.87.87,0,0,0,54.29,12l-9.42,9.41a3.35,3.35,0,0,1-4.74,0L30.71,12a.87.87,0,0,0-1.48.61v13.3a3.36,3.36,0,0,1-3.36,3.35H12.61A.87.87,0,0,0,12,30.72l9.42,9.41a3.36,3.36,0,0,1,0,4.75L12,54.29a.87.87,0,0,0,.62,1.49H25.87a3.36,3.36,0,0,1,3.36,3.35V72.42a.87.87,0,0,0,1.48.61l9.42-9.41a3.35,3.35,0,0,1,4.74,0L54.29,73a.87.87,0,0,0,1.48-.61V59.13a3.36,3.36,0,0,1,3.36-3.35H72.39A.87.87,0,0,0,73,54.29Zm-9.21-.82A12,12,0,1,1,40.94,30.62,12,12,0,0,1,54.38,44.06Z"/><path class="e48e0633-05e7-4a89-8c0f-34acb3d8bbb8" d="M42.5,36.9a5.6,5.6,0,1,0,5.6,5.6A5.6,5.6,0,0,0,42.5,36.9Z"/></g></g></svg>