<svg xmlns="http://www.w3.org/2000/svg" viewBox="0 0 85 85"><defs><style>.a8d26307-0b0c-4ac2-b966-3a4f5661b8b6{fill:#505657;}.a36b7d6d-8690-4325-adbf-d5ce8885a2ba{fill:#fff;fill-rule:evenodd;}</style></defs><g id="aed60d0c-44ea-4575-bd60-277ef2f434a0" data-name="Layer 2"><g id="e71ef8c0-bc20-4481-a66f-830573d41ff7" data-name="Layer 1"><circle class="a8d26307-0b0c-4ac2-b966-3a4f5661b8b6" cx="42.5" cy="42.5" r="42.5"/><path class="a36b7d6d-8690-4325-adbf-d5ce8885a2ba" d="M16,59.74V25.53a9.41,9.41,0,0,1,9.36-9.36h31L40.55,32a2.38,2.38,0,0,0-.7,1.31l-2,11.37a2.42,2.42,0,0,0,2.81,2.82l11.38-2a2.39,2.39,0,0,0,1.3-.7l15.5-15.5V59.64A9.41,9.41,0,0,1,59.47,69H25.26A9.3,9.3,0,0,1,16,59.74ZM43.37,42l1-5.63L49,41ZM53,38.11,47.2,32.27,66.31,13.15a.39.39,0,0,1,.61,0l5.23,5.23a.39.39,0,0,1,0,.61Z"/></g></g></svg>