<svg xmlns="http://www.w3.org/2000/svg" viewBox="0 0 85 85"><defs><style>.f24a7a36-1605-4a0e-960f-587bd941c5f8{fill:#769279;}.b8faada1-4260-4123-89da-6349cea217dc{fill:#fff;fill-rule:evenodd;}</style></defs><g id="f602334c-acbb-4f56-967b-6d52753c0250" data-name="Layer 2"><g id="a962ca60-00b6-440a-8df3-cd2b6eaef805" data-name="Layer 1"><circle class="f24a7a36-1605-4a0e-960f-587bd941c5f8" cx="42.5" cy="42.5" r="42.5"/><path class="b8faada1-4260-4123-89da-6349cea217dc" d="M20,61.53V16H57.5A7.44,7.44,0,0,1,65,23.47V69H27.5A7.5,7.5,0,0,1,20,61.53Zm24.2-8.48a2.44,2.44,0,0,0-2.4-2.42h-9a2.42,2.42,0,0,0,0,4.84h9A2.44,2.44,0,0,0,44.2,53.05ZM54.7,40.73a2.44,2.44,0,0,0-2.4-2.42H32.7a2.43,2.43,0,0,0,0,4.85H52.3A2.45,2.45,0,0,0,54.7,40.73Zm0-12.31A2.45,2.45,0,0,0,52.3,26H32.7a2.43,2.43,0,0,0,0,4.85H52.3A2.44,2.44,0,0,0,54.7,28.42Z"/></g></g></svg>