<svg xmlns="http://www.w3.org/2000/svg" viewBox="0 0 85 85"><defs><style>.b379b688-de66-4567-889b-cabbd1946ce9{fill:#eb5e2a;}.bec203b9-abec-4b59-ad85-6c4864e32f6c{fill:#fff;}</style></defs><g id="f552bfa2-a283-4d3b-9702-774a69e2ce2d" data-name="Layer 2"><g id="b723f278-4ae6-4e94-8734-186e224db36f" data-name="Layer 1"><circle class="b379b688-de66-4567-889b-cabbd1946ce9" cx="42.5" cy="42.5" r="42.5"/><path class="bec203b9-abec-4b59-ad85-6c4864e32f6c" d="M31.52,65.92l-12.4-45.8a3.26,3.26,0,1,1,6.3-1.7l.3,1.3c7.4-4,11.8-2.1,16,.4s7.9,5.3,14.3,3.4l1.6-.5a2.54,2.54,0,0,1,3.3,1.7l5.9,21.9a2.53,2.53,0,0,1-1.7,3.1l-1.6.5h-.2c-1.1.2-2.1.4-3.2.5-7,.5-11.8-2.8-16.1-4.6-3.3-1.4-6.5-2-10.5.1l-.6.3,4.8,17.7a3.26,3.26,0,0,1-2.3,4A3.16,3.16,0,0,1,31.52,65.92Z"/></g></g></svg>