<svg xmlns="http://www.w3.org/2000/svg" viewBox="0 0 85 85"><defs><style>.b48881ec-ea9d-4f5d-b4fd-a67477a3a13b{fill:none;}.b81fbc2e-8de5-42df-9446-f0dc42f13d1d{fill:#fff;fill-rule:evenodd;}</style></defs><g id="f68399e3-7417-4094-b2d0-0a9fa5c8aab7" data-name="Layer 2"><g id="e058f22b-efe3-4177-ae25-e276e53b3255" data-name="Layer 1"><circle class="b48881ec-ea9d-4f5d-b4fd-a67477a3a13b" cx="42.5" cy="42.5" r="42.5"/><path class="b81fbc2e-8de5-42df-9446-f0dc42f13d1d" d="M48.37,15.46,69.54,36.58a8.35,8.35,0,0,1,0,11.84L48.37,69.54a8.34,8.34,0,0,1-11.83,0L15.46,48.42a8.35,8.35,0,0,1,0-11.84L36.54,15.46A8.34,8.34,0,0,1,48.37,15.46ZM37.73,26.82l-10.94,11a5.57,5.57,0,0,0-1.29-.1,4.74,4.74,0,1,0,5.07,4.38,4.11,4.11,0,0,0-.2-1.09L40,31.3V55.49A4.68,4.68,0,0,0,37.73,60a4.73,4.73,0,1,0,9.44-.7c0-.3-.1-.6-.1-.8L58.21,47.23a3.67,3.67,0,0,0,1.79.2,4.74,4.74,0,1,0-5.07-4.38.9.9,0,0,0,.1.5L44.89,53.6V30.4a4.66,4.66,0,0,0,2.28-4.48,4.76,4.76,0,0,0-5.07-4.38A5,5,0,0,0,37.73,26.82Z"/></g></g></svg>