<svg xmlns="http://www.w3.org/2000/svg" viewBox="0 0 85 85"><defs><style>.aad04492-8efc-4bc9-857a-2b9ba3ca460d{fill:none;}.e218d9df-d12d-4bb3-bc5a-1acc223d46dd{fill:#fff;}</style></defs><g id="ef3cad5d-81d6-41f1-82e4-a4e05fcef8c7" data-name="Layer 2"><g id="eebeaafe-0309-4276-be5d-9458cf3a2047" data-name="Layer 1"><circle class="aad04492-8efc-4bc9-857a-2b9ba3ca460d" cx="42.5" cy="42.5" r="42.5"/><path class="e218d9df-d12d-4bb3-bc5a-1acc223d46dd" d="M63.59,44.88a3.36,3.36,0,0,1,0-4.75L73,30.72a.87.87,0,0,0-.62-1.49H59.13a3.36,3.36,0,0,1-3.36-3.35V12.58A.87.87,0,0,0,54.29,12l-9.42,9.41a3.35,3.35,0,0,1-4.74,0L30.71,12a.87.87,0,0,0-1.48.61v13.3a3.36,3.36,0,0,1-3.36,3.35H12.61A.87.87,0,0,0,12,30.72l9.42,9.41a3.36,3.36,0,0,1,0,4.75L12,54.29a.87.87,0,0,0,.62,1.49H25.87a3.36,3.36,0,0,1,3.36,3.35V72.42a.87.87,0,0,0,1.48.61l9.42-9.41a3.35,3.35,0,0,1,4.74,0L54.29,73a.87.87,0,0,0,1.48-.61V59.13a3.36,3.36,0,0,1,3.36-3.35H72.39A.87.87,0,0,0,73,54.29Zm-9.21-.82A12,12,0,1,1,40.94,30.62,12,12,0,0,1,54.38,44.06Z"/><path class="e218d9df-d12d-4bb3-bc5a-1acc223d46dd" d="M42.5,36.9a5.6,5.6,0,1,0,5.6,5.6A5.6,5.6,0,0,0,42.5,36.9Z"/></g></g></svg>