<svg xmlns="http://www.w3.org/2000/svg" viewBox="0 0 85 85"><defs><style>.ae02a9d7-5fa1-4cc2-95e3-05ea49a07f88{fill:none;}.f1f75640-58ee-451a-a126-c0e073ba645c{fill:#fff;fill-rule:evenodd;}</style></defs><g id="b4caae6b-d2ad-43a9-8516-26e77db81273" data-name="Layer 2"><g id="ac7b2ada-72e1-4eff-b749-841b890081dd" data-name="Layer 1"><circle class="ae02a9d7-5fa1-4cc2-95e3-05ea49a07f88" cx="42.5" cy="42.5" r="42.5"/><path class="f1f75640-58ee-451a-a126-c0e073ba645c" d="M16,59.74V25.53a9.41,9.41,0,0,1,9.36-9.36h31L40.55,32a2.38,2.38,0,0,0-.7,1.31l-2,11.37a2.42,2.42,0,0,0,2.81,2.82l11.38-2a2.39,2.39,0,0,0,1.3-.7l15.5-15.5V59.64A9.41,9.41,0,0,1,59.47,69H25.26A9.3,9.3,0,0,1,16,59.74ZM43.37,42l1-5.63L49,41ZM53,38.11,47.2,32.27,66.31,13.15a.39.39,0,0,1,.61,0l5.23,5.23a.39.39,0,0,1,0,.61Z"/></g></g></svg>