<svg xmlns="http://www.w3.org/2000/svg" viewBox="0 0 85 85"><defs><style>.f96b5610-df68-4594-8f25-c3bbcc3213a2{fill:none;}.bceeec6b-30b6-4a4c-92eb-1a41a8486c0b{fill:#fff;}</style></defs><g id="bca27065-19df-4ebc-966e-c4c839e2c2cb" data-name="Layer 2"><g id="a73540b3-2c84-4f68-9eef-2f4b063f06ea" data-name="Layer 1"><circle class="f96b5610-df68-4594-8f25-c3bbcc3213a2" cx="42.5" cy="42.5" r="42.5"/><path class="bceeec6b-30b6-4a4c-92eb-1a41a8486c0b" d="M31.52,65.92l-12.4-45.8a3.26,3.26,0,1,1,6.3-1.7l.3,1.3c7.4-4,11.8-2.1,16,.4s7.9,5.3,14.3,3.4l1.6-.5a2.54,2.54,0,0,1,3.3,1.7l5.9,21.9a2.53,2.53,0,0,1-1.7,3.1l-1.6.5h-.2c-1.1.2-2.1.4-3.2.5-7,.5-11.8-2.8-16.1-4.6-3.3-1.4-6.5-2-10.5.1l-.6.3,4.8,17.7a3.26,3.26,0,0,1-2.3,4A3.16,3.16,0,0,1,31.52,65.92Z"/></g></g></svg>