<?xml version="1.0" encoding="UTF-8"?>
<svg id="Layer_2" data-name="Layer 2" xmlns="http://www.w3.org/2000/svg" viewBox="0 0 85 85">
  <defs>
    <style>
      .cls-1 {
        fill: #fff;
      }
    </style>
  </defs>
  <g id="Layer_1-2" data-name="Layer 1">
    <g>
      <path class="cls-1" d="m59.68,23.07H25.32c-1.24,0-2.25,1.01-2.25,2.25v13.07c0,1.24,1.01,2.25,2.25,2.25h34.36c1.24,0,2.25-1.01,2.25-2.25v-13.07c0-1.24-1.01-2.25-2.25-2.25Zm-28.74,11.96c-1.75,0-3.17-1.42-3.17-3.17s1.42-3.17,3.17-3.17,3.17,1.42,3.17,3.17-1.42,3.17-3.17,3.17Z"/>
      <path class="cls-1" d="m59.68,44.36H25.32c-1.24,0-2.25,1.01-2.25,2.25v13.07c0,1.24,1.01,2.25,2.25,2.25h34.36c1.24,0,2.25-1.01,2.25-2.25v-13.07c0-1.24-1.01-2.25-2.25-2.25Zm-28.74,11.96c-1.75,0-3.17-1.42-3.17-3.17s1.42-3.17,3.17-3.17,3.17,1.42,3.17,3.17-1.42,3.17-3.17,3.17Z"/>
      <path class="cls-1" d="m42.5,0C19.03,0,0,19.03,0,42.5s19.03,42.5,42.5,42.5,42.5-19.03,42.5-42.5S65.97,0,42.5,0Zm26.5,59.63c0,5.14-4.23,9.37-9.37,9.37H25.37c-5.14,0-9.37-4.23-9.37-9.37V25.37c0-5.14,4.23-9.37,9.37-9.37h34.26c5.14,0,9.37,4.23,9.37,9.37v34.26Z"/>
    </g>
  </g>
</svg>