<svg xmlns="http://www.w3.org/2000/svg" viewBox="0 0 85 85"><defs><style>.fb3f59bf-dc7d-414a-be2b-f8d1220754f7{fill:#fff;}</style></defs><g id="b1a7ffb5-d0ac-4f3d-b84a-238857c8694e" data-name="Layer 2"><g id="f4bc67ef-b438-4dda-a1db-0bb60b8b8070" data-name="Layer 1"><path class="fb3f59bf-dc7d-414a-be2b-f8d1220754f7" d="M42.5,0A42.5,42.5,0,1,0,85,42.5,42.5,42.5,0,0,0,42.5,0ZM29.73,69H25.39A9.43,9.43,0,0,1,16,59.63V57.31H29.73Zm0-18.44H16V25.37A9.43,9.43,0,0,1,25.39,16h4.34ZM69,59.63A9.43,9.43,0,0,1,59.61,69H36.49V57.31H69Zm0-9.07H36.49V16H59.61A9.43,9.43,0,0,1,69,25.37Z"/></g></g></svg>