<svg xmlns="http://www.w3.org/2000/svg" viewBox="0 0 85 85"><defs><style>.e4e26ed2-29ed-4cde-9317-027e512661a3{fill:#fff;}</style></defs><g id="ebe9f27f-2454-4e03-a859-80528ee6d1f8" data-name="Layer 2"><g id="a6d5bdd4-9c00-47d8-b229-c341d4efb34a" data-name="Layer 1"><path class="e4e26ed2-29ed-4cde-9317-027e512661a3" d="M42.5,34.94a5,5,0,1,0,5,5A5,5,0,0,0,42.5,34.94Z"/><circle class="e4e26ed2-29ed-4cde-9317-027e512661a3" cx="55.57" cy="39.9" r="4.97"/><path class="e4e26ed2-29ed-4cde-9317-027e512661a3" d="M42.5,0A42.5,42.5,0,1,0,85,42.5,42.5,42.5,0,0,0,42.5,0Zm0,62.6a35.65,35.65,0,0,1-8.82-1l-10.33,11V57.53C16.46,53.38,12,47,12,39.8,12,27.23,25.68,17,42.5,17S73,27.23,73,39.8,59.32,62.6,42.5,62.6Z"/><circle class="e4e26ed2-29ed-4cde-9317-027e512661a3" cx="29.43" cy="39.9" r="4.97"/></g></g></svg>