<svg xmlns="http://www.w3.org/2000/svg" viewBox="0 0 85 85"><defs><style>.a36d7879-15c8-49e7-8259-7553c81cf67d{fill:#fff;}</style></defs><g id="b9714735-9031-49d2-8439-75a19b154e35" data-name="Layer 2"><g id="a132817b-a557-433d-a86d-afab8486eebd" data-name="Layer 1"><path class="a36d7879-15c8-49e7-8259-7553c81cf67d" d="M52.3,38.31H32.7a2.43,2.43,0,0,0,0,4.85H52.3a2.43,2.43,0,0,0,0-4.85Z"/><path class="a36d7879-15c8-49e7-8259-7553c81cf67d" d="M41.8,50.63h-9a2.42,2.42,0,0,0,0,4.84h9a2.42,2.42,0,0,0,0-4.84Z"/><path class="a36d7879-15c8-49e7-8259-7553c81cf67d" d="M52.3,26H32.7a2.43,2.43,0,0,0,0,4.85H52.3a2.43,2.43,0,0,0,0-4.85Z"/><path class="a36d7879-15c8-49e7-8259-7553c81cf67d" d="M42.5,0A42.5,42.5,0,1,0,85,42.5,42.5,42.5,0,0,0,42.5,0ZM65,69H27.5A7.5,7.5,0,0,1,20,61.53V16H57.5A7.44,7.44,0,0,1,65,23.47Z"/></g></g></svg>